<?xml version="1.0" encoding="UTF-8"?>
<!-- Created with Inkscape (http://www.inkscape.org/) -->
<svg width="730" height="730" version="1.1" viewBox="0 0 730 730" xmlns="http://www.w3.org/2000/svg" xmlns:cc="http://creativecommons.org/ns#" xmlns:dc="http://purl.org/dc/elements/1.1/" xmlns:rdf="http://www.w3.org/1999/02/22-rdf-syntax-ns#"><metadata><rdf:RDF><cc:Work rdf:about=""><dc:format>image/svg+xml</dc:format><dc:type rdf:resource="http://purl.org/dc/dcmitype/StillImage"/></cc:Work></rdf:RDF></metadata><g transform="translate(-1555 392.64)"><rect x="1555" y="-392.64" width="730" height="730" color="#000000" color-rendering="auto" fill="#221f1c" image-rendering="auto" shape-rendering="auto" solid-color="#000000" style="isolation:auto;mix-blend-mode:normal"/></g><g transform="translate(-1555 -715)"><path d="m1916.3 835.07c-4.8181-0.92023-129.39 146.36-129.39 152.98 0 3.8094 10.84 4.108 127.55 3.5049 85.13-0.4399 127.85-1.5342 128.43-3.2915 1.2212-3.6651-121.55-152.23-126.6-153.19zm27.782 16.274c-3.2873 2.0317-1.608 4.2636 55.195 73.42 29.301 35.673 55.004 64.808 57.12 64.744 2.1156-0.0637 17.002-6.1436 33.082-13.508 17.309-7.9282 29.557-15.051 30.022-17.463 0.5666-2.9425-23.378-18.57-86.25-56.292-47.869-28.72-87.995-51.625-89.168-50.9zm-62.342 6.1257c-0.5747 0.0233-1.3138 0.16111-2.2299 0.40128-9.4229 2.4707-158.66 102.5-158.68 106.36-0.021 3.9015 42.765 24.934 51.342 25.239 2.6297 0.0936 24.859-24.331 56.721-62.321 28.819-34.362 53.098-64.295 53.95-66.517 0.8732-2.2756 0.6244-3.2316-1.0997-3.1619zm33.976 1.2089c4.1044 0 97.644 113.38 95.886 116.23-0.6821 1.1035-45.292 2.0063-99.131 2.0063-77.664 0-97.483-0.65548-95.926-3.1771 6.9257-11.219 96.427-115.06 99.172-115.06zm91.012 47.68c3.9257 0.0183 82.756 47.418 82.756 49.834 0 1.4841-26.064 15.634-28.798 15.634-0.394 0-4.206-3.7191-8.4697-8.2641-14.369-15.317-46.814-55.975-45.62-57.168 0.023-0.0239 0.07-0.0359 0.1319-0.0355zm-195.88 14.989c0.1027-9e-3 0.1715 6e-3 0.2082 0.0432 1.817 1.8171-39.681 50.452-42.944 50.329-1.5482-0.0585-6.689-2.1707-11.423-4.6933l-8.6071-4.5867 8.6071-6.4305c16.895-12.623 50.976-34.383 54.159-34.662zm313.25 45.912c-8.3032 0.59624-62.848 25.16-64.394 29.189-1.9004 4.9525 67.914 179.21 71.334 178.05 2.1575-0.7308 2.6731-20.461 1.9531-74.504-1.3974-104.89-3.0613-131.73-8.2362-132.72-0.1682-0.0321-0.3899-0.0395-0.6578-0.0203zm-407.32 4.5664c-1.9317 0-4.0366 2.5728-4.678 5.7193-2.0124 9.8715-6.7271 190.28-5.0438 193 1.0728 1.7358 2.5083 1.6846 4.3479-0.155 1.5098-1.5098 15.572-40.444 31.251-86.519 22.629-66.503 27.901-84.568 25.572-87.629-3.2058-4.2132-45.777-24.416-51.449-24.416zm395.07 17.93c0.9579-0.0247 1.5634 0.16072 1.7016 0.60699 1.5409 4.9754 4.3423 108.59 2.9359 108.59-0.7058 0-1.7603-0.8585-2.3441-1.9073-4.6771-8.4023-35.047-90.262-34.309-92.477 1.3698-4.1094 25.31-14.64 32.015-14.817zm-381.44 5.9124c5.4741 0.11833 20.902 7.2199 20.902 10.243 0 4.3354-19.308 61.216-22.667 66.773-2.122 3.5112-2.6548-5.1659-2.1537-35.182 0.3659-21.913 1.3811-40.552 2.2553-41.422 0.3017-0.30037 0.8815-0.42819 1.6635-0.41142zm252.59 1.9835c-17.643-0.013-40.022 0.0715-68.328 0.21339-121.27 0.60685-131.55 0.9911-131.26 4.9167 0.1768 2.3427 26.98 49.253 59.561 104.25 71.266 120.29 70.502 119.06 73.602 119.06 1.361 0 5.2435-4.2897 8.6298-9.5339 14.355-22.23 121.05-212.33 121.05-215.68 0-2.3664-10.324-3.1934-63.253-3.2203zm70.636 8.4978c-3.4205 0-129.34 218.35-129.4 224.39-0.047 4.8368 7.1914 4.1873 107.03-9.605 50.894-7.0309 94.656-13.439 97.25-14.24 3.5815-1.1065 4.3706-3.0776 3.2762-8.1929-3.5477-16.58-74.969-192.35-78.159-192.35zm-277.08 2.5447c-4.1678 0-9.7503 14.842-43.34 115.23-19.642 58.701-25.09 77.806-22.842 80.094 2.8502 2.9 169.67 28.864 189.05 29.425 6.7706 0.1958 9.5339-0.7945 9.5339-3.4184 0-6.1785-128.71-221.33-132.4-221.33zm137.49 3.812c67.154 0 106.79 0.9157 106.79 2.4636 0 3.2046-102.32 183.15-104.14 183.14-0.7609 0-25.697-41.014-55.413-91.131-29.717-50.117-54.029-91.874-54.029-92.795s48.054-1.6763 106.79-1.6763zm137.64 28.102c0.3753-0.04 0.6922 0.047 0.9219 0.2768 3.0374 3.0374 60.186 150.03 58.85 151.37-0.7203 0.7201-33.703 5.7401-73.295 11.154-39.592 5.4141-75.133 10.414-78.979 11.111-4.0033 0.7261-6.9917 0.1249-6.9917-1.4069 0-2.6714 88.738-160.22 95.289-169.18 1.4251-1.9491 3.08-3.209 4.2057-3.3295zm-272.79 2.5143c0.9726 0.098 2.4976 1.0795 3.8857 2.5904 3.6145 3.9339 95.02 157.91 97.359 164 2.0795 5.4188-9.0387 4.5316-84.051-6.7073-36.212-5.4255-66.442-10.467-67.18-11.205-1.2985-1.2985 46.638-145.89 49.224-148.47 0.1763-0.1764 0.4377-0.2436 0.7619-0.2108zm329.3 172.09c-15.392-0.2658-182.62 23.942-185.87 27.063-2.446 2.3495-2.6829 11.514-1.0336 40.063 2.1675 37.522 3.5016 43.806 9.0157 42.41 1.6871-0.427 43.344-24.095 92.569-52.597 49.226-28.502 89.501-52.695 89.501-53.76s-1.4291-2.4502-3.1772-3.0781c-0.1699-0.061-0.5092-0.094-1.0056-0.1014zm-375.99 0.4546c-0.3982 0.013-0.6504 0.036-0.7466 0.088-2.7115 1.4701-2.6578 2.3768 0.2895 4.8228 8.8953 7.3825 178.77 102.12 183.11 102.12 4.6289 0 4.7721-1.6666 3.1137-36.231-2.0175-42.044-2.4738-44.331-9.2877-46.494-11.202-3.5554-164.13-24.52-176.48-24.31zm303.02 26.103c0.7324-0.02 1.2637-0.013 1.5694 0.035 4.0735 0.579-8.1776 8.8335-43.644 29.41-27.118 15.732-50.152 28.604-51.19 28.604-1.0375 0-2.5778-2.5754-3.421-5.7219-0.8431-3.1465-1.5505-13.317-1.5696-22.601l-0.035-16.879 8.2641-1.468c22.678-4.0291 79.037-11.087 90.024-11.38zm-229.23 0.053c14.355-0.026 91.388 12.48 93.267 15.439 3.4659 5.457 2.5074 40.045-1.1023 39.782-1.7481-0.1275-24.311-12.344-50.141-27.147-25.83-14.803-45.638-27.356-44.018-27.896 0.3591-0.1196 1.0366-0.1759 1.9936-0.1777z" fill="#6c5353"/></g></svg>
